<?xml version="1.0" encoding="UTF-8" standalone="no"?>
<svg xmlns="http://www.w3.org/2000/svg" xmlns:osb="http://www.openswatchbook.org/uri/2009/osb" height="512" width="512" version="1.1" xmlns:xlink="http://www.w3.org/1999/xlink" viewBox="0 0 135.46666 135.46667">
 <g transform="translate(0 -161.5)">
  <g>
   <rect style="color-rendering:auto;color:#000000;isolation:auto;mix-blend-mode:normal;paint-order:stroke fill markers;shape-rendering:auto;solid-color:#000000;image-rendering:auto" height="135.5" width="135.5" y="161.5" x="-.01271" stroke-width="2" fill="#df382c"/>
   <path d="m67.73 189.2c-13.18 13.18-27.61 19.44-44.47 22.95 0 31.71 19.05 56.2 44.47 65.98 25.64-9.873 44.47-34.51 44.47-65.98-16.75-3.49-31.22-9.709-44.47-22.95zm-12.7 25.95h5.32v15.56c0 3.623 0.5718 6.216 1.716 7.78s3.07 2.345 5.778 2.345c0.572 0 1.163-0.0189 1.773-0.0571 0.6102-0.038 1.182-0.0759 1.716-0.114 0.5339-0.0763 1.011-0.1337 1.431-0.1718 0.4576-0.0763 0.7817-0.1526 0.9724-0.2288v-25.11h5.319v28.89c-1.22 0.3051-2.841 0.6292-4.862 0.9724-1.983 0.3432-4.291 0.5147-6.922 0.5147-2.288 0-4.214-0.3241-5.777-0.9724-1.564-0.6864-2.822-1.64-3.775-2.86-0.9534-1.22-1.64-2.65-2.059-4.29-0.4195-1.678-0.6294-3.528-0.6294-5.549z" stroke-width="1.434" fill="#d6d3cf"/>
   <path d="m67.73 183.5c-13.5 13.5-28.29 19.92-45.56 23.52 0 32.49 19.52 57.58 45.56 67.61 26.27-10.12 45.56-35.37 45.56-67.61-17.17-3.576-32-9.949-45.56-23.52zm-12.7 31.65h5.32v15.56c0 3.623 0.5718 6.216 1.716 7.78s3.07 2.345 5.778 2.345c0.572 0 1.163-0.0189 1.773-0.0571 0.6102-0.038 1.182-0.0759 1.716-0.114 0.5339-0.0763 1.011-0.1337 1.431-0.1718 0.4576-0.0763 0.7817-0.1526 0.9724-0.2288v-25.11h5.319v28.89c-1.22 0.3051-2.841 0.6292-4.862 0.9724-1.983 0.3432-4.291 0.5147-6.922 0.5147-2.288 0-4.214-0.3241-5.777-0.9724-1.564-0.6864-2.822-1.64-3.775-2.86-0.9534-1.22-1.64-2.65-2.059-4.29-0.4195-1.678-0.6294-3.528-0.6294-5.549z" stroke-width="1.47" fill="#f6f6f5"/>
  </g>
  <rect opacity=".1" style="color-rendering:auto;color:#000000;isolation:auto;mix-blend-mode:normal;paint-order:stroke fill markers;shape-rendering:auto;solid-color:#000000;image-rendering:auto" height="48.05" width="135.5" y="248.9" x="5.215e-7" stroke-width="1.906" fill="#fff"/>
 </g>
</svg>
